Sprint_08100001_forces_filt999Hz.mot
version=1
nRows=38
nColumns=19
inDegrees=yes
endheader
time	R_ground_force_vx	R_ground_force_vy	R_ground_force_vz	R_ground_force_px	R_ground_force_py	R_ground_force_pz	R_ground_torque_x	R_ground_torque_y	R_ground_torque_z	L_ground_force_vx	L_ground_force_vy	L_ground_force_vz	L_ground_force_px	L_ground_force_py	L_ground_force_pz	L_ground_torque_x	L_ground_torque_y	L_ground_torque_z	
1.463500	  0.000000	  0.000000	  0.000000	  0.281454	  0.000000	 -0.218054	  0.000000	  0.000000	  0.000000	  0.000000	  0.000000	  0.000000	  1.207821	  0.000000	 -0.393413	  0.000000	  0.000000	  0.000000
1.464000	  0.000000	  0.000000	  0.000000	  0.283831	  0.000000	 -0.217914	  0.000000	  0.000000	  0.000000	  0.000000	  0.000000	  0.000000	  1.204735	  0.000000	 -0.392829	  0.000000	  0.000000	  0.000000
1.464500	  0.000000	  0.000000	  0.000000	  0.286208	  0.000000	 -0.217773	  0.000000	  0.000000	  0.000000	  0.000000	  0.000000	  0.000000	  1.201650	  0.000000	 -0.392245	  0.000000	  0.000000	  0.000000
1.465000	  0.000000	  0.000000	  0.000000	  0.288585	  0.000000	 -0.217633	  0.000000	  0.000000	  0.000000	  0.000000	  0.000000	  0.000000	  1.198564	  0.000000	 -0.391661	  0.000000	  0.000000	  0.000000
1.465500	  0.000000	  0.000000	  0.000000	  0.291010	  0.000000	 -0.217407	  0.000000	  0.000000	  0.000000	  0.000000	  0.000000	  0.000000	  1.195419	  0.000000	 -0.390842	  0.000000	  0.000000	  0.000000
1.466000	  0.000000	  0.000000	  0.000000	  0.293435	  0.000000	 -0.217181	  0.000000	  0.000000	  0.000000	  0.000000	  0.000000	  0.000000	  1.192273	  0.000000	 -0.390024	  0.000000	  0.000000	  0.000000
1.466500	  0.000000	  0.000000	  0.000000	  0.295860	  0.000000	 -0.216955	  0.000000	  0.000000	  0.000000	  0.000000	  0.000000	  0.000000	  1.189128	  0.000000	 -0.389206	  0.000000	  0.000000	  0.000000
1.467000	  0.000000	  0.000000	  0.000000	  0.298285	  0.000000	 -0.216729	  0.000000	  0.000000	  0.000000	  0.000000	  0.000000	  0.000000	  1.185983	  0.000000	 -0.388388	  0.000000	  0.000000	  0.000000
1.467500	  0.000000	  0.000000	  0.000000	  0.300710	  0.000000	 -0.216503	  0.000000	  0.000000	  0.000000	  0.000000	  0.000000	  0.000000	  1.182837	  0.000000	 -0.387570	  0.000000	  0.000000	  0.000000
1.468000	  0.000000	  0.000000	  0.000000	  0.303135	  0.000000	 -0.216276	  0.000000	  0.000000	  0.000000	  0.000000	  0.000000	  0.000000	  1.179692	  0.000000	 -0.386752	  0.000000	  0.000000	  0.000000
1.468500	  0.000000	  0.000000	  0.000000	  0.305560	  0.000000	 -0.216050	  0.000000	  0.000000	  0.000000	  0.000000	  0.000000	  0.000000	  1.176547	  0.000000	 -0.385933	  0.000000	  0.000000	  0.000000
1.469000	  0.000000	  0.000000	  0.000000	  0.307985	  0.000000	 -0.215824	  0.000000	  0.000000	  0.000000	  0.000000	  0.000000	  0.000000	  1.173401	  0.000000	 -0.385115	  0.000000	  0.000000	  0.000000
1.469500	  0.000000	  0.000000	  0.000000	  0.310410	  0.000000	 -0.215598	  0.000000	  0.000000	  0.000000	  0.000000	  0.000000	  0.000000	  1.170256	  0.000000	 -0.384297	  0.000000	  0.000000	  0.000000
1.470000	  0.000000	  0.000000	  0.000000	  0.312835	  0.000000	 -0.215372	  0.000000	  0.000000	  0.000000	  0.000000	  0.000000	  0.000000	  1.153500	 -0.000000	 -0.398641	  0.000000	  0.000000	  0.000000
1.470500	  0.000000	  0.000000	  0.000000	  0.315285	  0.000000	 -0.215203	  0.000000	  0.000000	  0.000000	  0.000000	  0.000000	  0.000000	  1.136745	 -0.000000	 -0.412985	  0.000000	  0.000000	  0.000000
1.471000	  0.000000	  0.000000	  0.000000	  0.317735	  0.000000	 -0.215033	  0.000000	  0.000000	  0.000000	  0.000000	  0.000000	  0.000000	  1.119989	 -0.000000	 -0.427329	  0.000000	  0.000000	  0.000000
1.471500	  0.000000	  0.000000	  0.000000	  0.320185	  0.000000	 -0.214864	  0.000000	  0.000000	  0.000000	  0.000000	  0.000000	  0.000000	  1.103234	 -0.000000	 -0.441673	  0.000000	  0.000000	  0.000000
1.472000	  0.000000	  0.000000	  0.000000	  0.322635	  0.000000	 -0.214694	  0.000000	  0.000000	  0.000000	  0.000000	  0.000000	  0.000000	  1.086478	  0.000000	 -0.456017	  0.000000	  0.000000	  0.000000
1.472500	  0.000000	  0.000000	  0.000000	  0.325085	  0.000000	 -0.214525	  0.000000	  0.000000	  0.000000	  0.000000	  0.000000	  0.000000	  1.069723	  0.000000	 -0.470361	  0.000000	  0.000000	  0.000000
1.473000	  0.000000	  0.000000	  0.000000	  0.327535	  0.000000	 -0.214356	  0.000000	  0.000000	  0.000000	  0.000000	  0.000000	  0.000000	  1.052967	  0.000000	 -0.484705	  0.000000	  0.000000	  0.000000
1.473500	  0.000000	  0.000000	  0.000000	  0.329985	  0.000000	 -0.214186	  0.000000	  0.000000	  0.000000	-192.041471	415.766210	-128.584163	  1.036211	  0.000000	 -0.499050	  0.000000	-75.048031	  0.000000
1.474000	  0.000000	  0.000000	  0.000000	  0.332435	  0.000000	 -0.214017	  0.000000	  0.000000	  0.000000	-192.556257	417.516367	-128.907905	  1.019456	  0.000000	 -0.513394	  0.000000	-75.390462	  0.000000
1.474500	  0.000000	  0.000000	  0.000000	  0.334885	  0.000000	 -0.213847	  0.000000	  0.000000	  0.000000	-228.128608	640.222791	-157.881032	  1.032691	  0.000000	 -0.489359	  0.000000	-74.459166	  0.000000
1.475000	  0.000000	  0.000000	  0.000000	  0.337335	  0.000000	 -0.213678	  0.000000	  0.000000	  0.000000	-228.261723	641.210409	-158.052199	  1.033705	  0.000000	 -0.488494	  0.000000	-75.079205	  0.000000
1.475500	  0.000000	  0.000000	  0.000000	  0.339792	  0.000000	 -0.213569	  0.000000	  0.000000	  0.000000	-253.916063	877.344190	-168.104413	  1.021143	  0.000000	 -0.471052	  0.000000	-66.815221	  0.000000
1.476000	  0.000000	  0.000000	  0.000000	  0.342248	  0.000000	 -0.213460	  0.000000	  0.000000	  0.000000	-254.201562	880.773569	-168.046713	  1.019063	  0.000000	 -0.469205	  0.000000	-66.243334	  0.000000
1.476500	  0.000000	  0.000000	  0.000000	  0.344705	  0.000000	 -0.213351	  0.000000	  0.000000	  0.000000	-283.823392	1045.801061	-140.409704	  1.023106	  0.000000	 -0.460949	  0.000000	-56.562043	  0.000000
1.477000	  0.000000	  0.000000	  0.000000	  0.347162	  0.000000	 -0.213243	  0.000000	  0.000000	  0.000000	-284.184980	1046.636754	-140.123137	  1.023302	  0.000000	 -0.460687	  0.000000	-56.376813	  0.000000
1.477500	  0.000000	  0.000000	  0.000000	  0.349619	  0.000000	 -0.213134	  0.000000	  0.000000	  0.000000	-348.749642	1126.519919	-69.761503	  1.038761	  0.000000	 -0.450351	  0.000000	-43.465610	  0.000000
1.478000	  0.000000	  0.000000	  0.000000	  0.352075	  0.000000	 -0.213025	  0.000000	  0.000000	  0.000000	-349.187317	1127.508461	-69.093482	  1.038574	  0.000000	 -0.450001	  0.000000	-42.638619	  0.000000
1.478500	  0.000000	  0.000000	  0.000000	  0.354532	  0.000000	 -0.212916	  0.000000	  0.000000	  0.000000	-452.433218	1184.045441	 26.139994	  1.029533	  0.000000	 -0.428935	  0.000000	-22.779892	  0.000000
1.479000	  0.000000	  0.000000	  0.000000	  0.356989	  0.000000	 -0.212807	  0.000000	  0.000000	  0.000000	-453.328448	1184.423845	 27.113175	  1.029274	  0.000000	 -0.428892	  0.000000	-21.954431	  0.000000
1.479500	  0.000000	  0.000000	  0.000000	  0.359446	  0.000000	 -0.212698	  0.000000	  0.000000	  0.000000	-563.822483	1274.682558	117.921619	  0.995016	  0.000000	 -0.404277	  0.000000	 -0.840972	  0.000000
1.480000	  0.000000	  0.000000	  0.000000	  0.361903	  0.000000	 -0.212590	  0.000000	  0.000000	  0.000000	-564.717503	1275.824070	118.589607	  0.994383	  0.000000	 -0.404003	  0.000000	 -0.324158	  0.000000
1.480500	  0.000000	  0.000000	  0.000000	  0.364345	  0.000000	 -0.212503	  0.000000	  0.000000	  0.000000	-658.198199	1387.902707	186.357297	  0.949731	  0.000000	 -0.385810	  0.000000	 27.383369	  0.000000
1.481000	  0.000000	  0.000000	  0.000000	  0.366787	  0.000000	 -0.212415	  0.000000	  0.000000	  0.000000	-659.016714	1388.433988	187.025267	  0.949604	  0.000000	 -0.385742	  0.000000	 27.795864	  0.000000
1.481500	  0.000000	  0.000000	  0.000000	  0.369229	  0.000000	 -0.212328	  0.000000	  0.000000	  0.000000	-723.887391	1481.439040	248.079108	  0.919430	  0.000000	 -0.371957	  0.000000	 69.151708	  0.000000
1.482000	  0.000000	  0.000000	  0.000000	  0.371671	  0.000000	 -0.212241	  0.000000	  0.000000	  0.000000	-724.400520	1481.817809	248.594471	  0.919252	  0.000000	 -0.371936	  0.000000	 69.234072	  0.000000
